<?xml version="1.0" standalone="no"?>
<!DOCTYPE svg PUBLIC "-//W3C//DTD SVG 20010904//EN"
 "http://www.w3.org/TR/2001/REC-SVG-20010904/DTD/svg10.dtd">
<svg version="1.0" xmlns="http://www.w3.org/2000/svg"
 width="600.000000pt" height="600.000000pt" viewBox="0 0 600.000000 600.000000"
 preserveAspectRatio="xMidYMid meet">
<metadata>
Created by potrace 1.11, written by Peter Selinger 2001-2013
</metadata>
<g transform="translate(0.000000,600.000000) scale(0.100000,-0.100000)"
fill="#000000" stroke="none">
<path d="M2903 5683 c9 -2 23 -2 30 0 6 3 -1 5 -18 5 -16 0 -22 -2 -12 -5z"/>
<path d="M2970 5676 c0 -8 61 -12 66 -4 3 4 -11 8 -30 8 -20 0 -36 -2 -36 -4z"/>
<path d="M3070 5653 c8 -3 24 -10 35 -16 18 -9 19 -9 6 6 -7 10 -23 17 -35 16
-14 0 -16 -2 -6 -6z"/>
<path d="M2773 5637 c-2 -4 -14 -5 -25 -1 -14 4 -28 -2 -46 -19 -15 -14 -38
-28 -52 -32 -14 -4 -30 -15 -37 -24 -11 -14 -12 -14 -13 3 0 12 -5 16 -16 12
-9 -3 -22 -6 -31 -6 -9 0 -13 -6 -10 -14 4 -11 0 -13 -16 -10 -41 10 -147 17
-147 10 0 -3 14 -12 32 -19 l32 -13 -37 0 c-22 0 -32 3 -24 8 6 4 -16 8 -50 8
-34 0 -65 -5 -68 -10 -4 -6 -14 -10 -23 -9 -21 3 -145 -56 -162 -76 -11 -13
-10 -14 6 -9 15 4 16 4 5 -4 -8 -6 -20 -8 -28 -5 -8 3 -23 -3 -33 -12 -11 -10
-20 -14 -20 -9 0 5 -11 -7 -24 -26 -13 -20 -35 -41 -49 -49 -26 -14 -158 -154
-170 -181 -4 -8 -18 -33 -32 -55 -13 -22 -29 -50 -34 -62 -5 -11 -15 -24 -21
-28 -6 -3 -26 -41 -46 -83 -84 -181 -95 -202 -105 -202 -6 0 -9 -9 -6 -20 3
-11 1 -18 -4 -14 -5 3 -10 -1 -10 -8 -1 -7 -2 -17 -4 -23 -1 -5 -3 -18 -3 -27
-1 -10 -7 -18 -13 -18 -5 0 -7 6 -3 13 5 7 1 7 -10 -2 -11 -10 -15 -22 -11
-38 3 -15 1 -22 -6 -21 -7 2 -24 -21 -39 -50 -14 -30 -32 -57 -39 -61 -7 -5
-13 -15 -15 -23 -1 -9 -13 -31 -27 -49 -14 -19 -36 -52 -49 -74 -13 -22 -30
-50 -38 -63 -13 -20 -13 -22 2 -16 14 5 13 -3 -6 -56 -20 -56 -24 -60 -36 -43
-14 17 -14 17 -10 -2 3 -11 -1 -33 -7 -49 -8 -18 -9 -42 -5 -62 6 -24 4 -37
-6 -45 -16 -13 -19 -33 -4 -24 14 8 13 2 -5 -31 -8 -16 -15 -44 -15 -63 0 -18
-11 -55 -24 -81 -13 -27 -22 -50 -20 -53 2 -2 -2 -10 -11 -17 -8 -7 -15 -19
-15 -26 0 -8 -10 -14 -22 -15 -22 0 -22 -1 -3 -9 13 -5 24 -3 31 6 15 18 25
18 18 -1 -4 -8 -1 -15 6 -15 9 0 8 -6 -3 -18 -10 -10 -17 -24 -17 -31 0 -7 -5
-9 -12 -5 -7 4 -8 3 -4 -4 4 -6 2 -21 -4 -32 -6 -11 -7 -20 -3 -20 7 0 11 -22
13 -74 1 -11 -8 -32 -20 -47 -11 -16 -20 -35 -20 -44 0 -9 -5 -26 -11 -37 -9
-17 -8 -24 6 -34 17 -13 17 -15 -6 -35 -17 -15 -19 -19 -6 -15 21 7 22 -7 2
-24 -8 -7 -15 -18 -14 -24 3 -23 -1 -36 -12 -36 -5 0 -7 5 -3 12 4 7 3 8 -4 4
-7 -4 -12 -16 -12 -27 0 -12 -5 -19 -12 -16 -7 2 -18 -3 -25 -12 -20 -25 -15
-36 7 -16 11 10 23 15 26 12 10 -10 -20 -50 -101 -134 -75 -78 -97 -118 -27
-50 21 20 42 37 46 37 5 0 14 7 20 15 7 10 16 12 26 5 8 -5 11 -12 7 -17 -5
-4 -13 -1 -18 7 -9 13 -10 12 -6 -1 3 -10 -8 -36 -26 -60 -18 -24 -25 -39 -18
-34 11 6 13 4 8 -9 -4 -10 -7 -24 -7 -31 0 -8 -11 -25 -25 -39 -14 -14 -25
-30 -25 -35 0 -6 -6 -14 -12 -18 -7 -4 -22 -25 -32 -45 -11 -21 -23 -38 -28
-38 -22 0 -133 -99 -178 -159 -53 -71 -60 -84 -85 -153 -10 -26 -23 -49 -30
-52 -10 -3 -10 2 1 23 13 25 28 85 39 148 3 24 56 144 88 203 18 32 30 70 22
70 -7 0 -60 -98 -76 -140 -65 -180 -91 -248 -99 -265 -5 -11 -16 -46 -24 -77
-8 -31 -20 -67 -26 -79 -7 -12 -10 -36 -7 -53 3 -19 -1 -39 -9 -51 -16 -22
-18 -39 -4 -30 7 4 10 -13 8 -48 -2 -30 -6 -53 -10 -50 -11 6 -10 -25 1 -64 7
-22 6 -33 -2 -37 -8 -3 -7 -8 3 -15 11 -6 16 -30 18 -78 2 -37 9 -104 17 -148
17 -95 23 -134 24 -157 1 -10 6 -18 11 -18 6 0 8 12 5 28 -6 27 -6 27 8 -3 18
-40 4 -77 -53 -138 -25 -27 -51 -60 -59 -75 -29 -54 -50 -172 -55 -307 -4 -75
-8 -140 -10 -144 -3 -4 -12 -71 -20 -149 -16 -138 -23 -582 -10 -569 4 4 8 23
10 43 2 20 8 41 13 48 5 6 16 29 23 51 18 52 70 133 75 118 2 -6 -8 -45 -22
-85 -15 -40 -33 -98 -42 -128 -8 -30 -23 -72 -33 -92 l-18 -38 483 0 482 0 6
42 c4 33 15 51 43 77 l36 33 -21 40 c-11 22 -18 44 -15 49 3 6 0 16 -6 24 -8
9 -8 15 -2 15 6 0 13 -6 16 -12 3 -9 13 -3 29 16 18 21 26 25 30 15 4 -8 4 -2
1 14 -7 32 13 37 37 9 13 -15 14 -22 4 -35 -7 -10 -17 -17 -23 -17 -6 0 -17
-10 -23 -22 -11 -21 -11 -22 5 -8 10 8 27 15 39 17 11 2 26 8 33 14 18 15 48
-43 31 -60 -6 -6 -16 -11 -22 -11 -18 0 -41 -34 -49 -70 -7 -38 -1 -35 22 11
10 18 24 35 32 37 11 4 10 -1 -4 -17 -11 -11 -17 -23 -14 -26 3 -3 11 1 18 10
23 28 31 15 9 -15 -13 -16 -20 -32 -17 -36 4 -3 11 4 18 15 12 24 35 29 26 6
-3 -8 -1 -15 5 -15 7 0 9 -10 5 -24 -8 -31 18 -56 29 -29 5 10 7 21 7 26 -3
13 17 7 26 -9 6 -12 9 -8 9 16 0 20 9 40 26 58 24 24 30 25 57 15 42 -16 38
-5 -6 13 -27 11 -34 19 -29 33 7 22 -21 37 -40 21 -11 -9 -12 -7 -8 9 4 15 1
21 -11 21 -9 0 -16 7 -16 15 0 9 9 15 22 15 21 0 21 0 2 14 -17 13 -20 12 -26
-5 -10 -27 -21 -24 -37 13 -8 18 -22 38 -30 44 -12 10 -13 17 -4 37 11 24 10
25 -9 22 -12 -3 -42 7 -66 21 -43 26 -44 27 -38 67 9 52 38 84 89 98 62 17 97
8 152 -35 l50 -40 -50 54 c-27 30 -52 52 -55 49 -3 -3 -28 -8 -56 -11 -28 -3
-65 -12 -82 -21 -18 -8 -32 -12 -32 -9 0 17 117 148 129 144 7 -2 20 -16 29
-31 9 -15 35 -43 57 -61 l40 -34 -44 47 c-41 42 -45 51 -45 97 0 60 7 69 36
44 l22 -19 -22 29 c-12 16 -22 37 -22 48 0 17 5 16 43 -13 l42 -33 -38 40
c-47 51 -47 63 1 28 l37 -28 -32 35 c-18 18 -36 45 -42 59 l-10 25 0 -24 c-1
-40 -57 -143 -125 -230 -46 -59 -66 -78 -66 -64 0 12 12 35 28 52 21 25 27 42
27 79 1 26 8 61 16 77 13 26 20 30 52 29 21 -1 34 3 30 9 -3 5 1 13 8 18 9 6
0 9 -28 9 l-41 0 15 40 c12 29 19 37 28 30 8 -7 15 -3 23 15 9 20 8 26 -5 33
-11 6 -12 11 -4 16 6 4 11 22 11 41 0 19 4 36 9 39 10 7 21 -45 23 -115 2 -36
7 -49 28 -64 l25 -19 -18 22 c-22 24 -17 37 21 56 34 17 135 14 159 -5 16 -13
17 -12 4 4 -12 15 -11 17 12 17 13 0 30 -7 37 -15 7 -8 17 -12 22 -9 6 4 7 -2
3 -16 -4 -14 -3 -20 3 -16 5 3 8 -10 6 -34 -2 -22 0 -50 5 -62 6 -16 10 -2 14
52 4 54 1 83 -9 104 -8 16 -14 35 -14 42 0 25 -52 42 -107 37 -34 -4 -53 -2
-53 5 0 6 -12 5 -30 -4 -31 -16 -69 -11 -82 10 -15 22 -8 25 21 9 27 -16 30
-16 55 0 31 21 33 51 6 92 l-19 30 -12 -33 c-12 -36 -34 -45 -23 -9 3 12 10
29 14 37 5 9 2 19 -8 28 -15 12 -15 12 6 7 18 -5 22 -2 22 15 0 12 -9 33 -20
47 -32 42 -23 50 15 13 36 -35 47 -31 20 7 -11 16 -13 28 -5 47 9 23 22 37 18
18 0 -4 2 -14 5 -22 3 -8 8 -24 10 -35 3 -11 3 24 0 77 l-6 97 38 22 c21 13
33 25 27 27 -8 2 -7 14 4 40 9 20 20 51 25 68 5 18 20 36 34 42 15 7 25 20 25
32 0 31 -37 18 -78 -28 -31 -34 -33 -35 -23 -10 7 19 7 29 0 34 -7 4 0 17 16
34 22 23 33 27 63 23 l37 -5 25 63 c36 91 189 243 217 215 3 -3 -4 -17 -16
-32 -11 -15 -21 -37 -21 -50 0 -13 -4 -24 -10 -24 -5 0 -10 -6 -10 -14 0 -18
-61 -156 -70 -156 -3 0 -4 -28 -2 -62 4 -67 47 -166 121 -278 l36 -55 9 59 c9
62 9 62 -40 92 -16 9 -18 27 -18 155 0 79 4 153 9 164 4 11 16 42 24 69 15 47
17 49 34 32 9 -10 15 -22 12 -27 -4 -5 1 -6 9 -3 10 4 16 1 16 -9 0 -9 5 -19
11 -23 8 -5 9 8 5 42 -14 115 -28 321 -32 484 -4 178 -6 202 -19 255 -6 25 -5
28 6 18 18 -18 26 -16 31 5 4 13 -10 36 -42 70 -71 77 -136 213 -154 322 -12
72 -57 517 -58 565 0 84 2 109 9 102 8 -8 38 58 47 104 10 50 26 79 73 133 24
26 43 58 43 70 0 12 9 32 21 45 11 12 18 28 16 35 -3 8 -2 17 2 22 5 5 21 43
35 84 15 41 31 84 36 95 48 112 50 118 39 131 -14 17 2 18 20 2 9 -9 12 -9 7
-1 -3 6 5 32 19 58 13 26 30 74 36 107 7 33 18 62 25 65 7 2 11 10 9 16 -12
42 -15 68 -5 62 5 -3 10 2 10 13 0 10 9 27 20 37 11 10 20 24 20 31 0 7 9 16
20 19 11 3 20 13 20 21 0 8 7 14 15 14 9 0 18 6 21 14 3 7 22 22 42 32 20 10
45 25 55 33 9 8 17 11 17 7 0 -4 7 0 16 8 8 9 26 16 40 16 13 0 23 5 22 12 -2
6 5 14 16 16 10 2 16 0 13 -5 -3 -5 2 -9 11 -9 9 -1 26 -5 37 -9 14 -6 11 0
-10 19 -16 16 -23 24 -15 19 27 -18 70 -25 70 -11 1 8 5 7 14 -4 7 -10 25 -22
40 -28 25 -9 28 -8 22 7 -4 11 2 7 16 -9 23 -26 78 -52 64 -29 -10 16 13 13
30 -4 9 -8 23 -15 32 -15 15 0 15 2 2 10 -22 14 -7 12 34 -5 20 -9 34 -19 32
-24 -5 -7 11 -13 69 -26 6 -1 15 -3 22 -3 6 -1 14 -11 18 -21 3 -10 16 -22 29
-25 14 -3 43 -29 65 -57 43 -54 49 -69 29 -69 -7 0 -2 -9 12 -20 16 -12 20
-20 11 -20 -12 0 -12 -3 -3 -12 7 -7 12 -40 12 -78 1 -63 7 -103 30 -185 15
-54 15 -56 29 -88 6 -16 9 -33 5 -38 -3 -5 0 -8 7 -7 7 2 17 -11 22 -29 8 -25
6 -35 -7 -48 -9 -9 -20 -14 -25 -11 -5 3 -12 -1 -15 -10 -3 -8 -10 -13 -15 -9
-5 3 -12 1 -16 -5 -3 -5 -20 -16 -38 -25 -50 -24 -68 -41 -62 -57 5 -13 11
-14 46 -1 74 25 235 35 248 14 3 -4 16 -13 29 -20 12 -7 20 -16 17 -21 -3 -5
7 -16 22 -24 15 -8 25 -15 21 -16 -4 0 0 -12 8 -27 12 -25 12 -28 -1 -31 -18
-4 -20 -19 -2 -25 6 -2 9 -8 5 -12 -4 -4 -31 8 -60 28 -69 47 -139 64 -173 41
-14 -9 -25 -12 -25 -6 0 5 -11 9 -25 8 -14 0 -25 -5 -25 -10 0 -4 -7 -6 -15
-2 -8 3 -15 1 -15 -3 0 -5 -7 -12 -16 -15 -8 -3 -12 -2 -9 4 3 6 1 10 -5 10
-6 0 -15 -10 -20 -22 -5 -13 -23 -36 -40 -52 -41 -39 -31 -45 11 -7 18 17 36
31 39 31 3 0 12 -16 19 -35 12 -34 13 -35 69 -35 53 0 59 2 75 30 10 17 16 39
12 49 -5 16 -2 18 14 14 34 -9 46 -30 33 -58 -7 -14 -16 -25 -21 -25 -6 0 -8
-7 -5 -15 5 -12 15 -14 43 -8 53 10 71 7 93 -17 15 -15 23 -18 33 -10 15 13
41 -13 29 -31 -4 -7 -2 -10 7 -7 20 7 83 -62 113 -125 32 -65 44 -183 26 -254
-6 -26 -14 -56 -16 -67 -8 -42 -35 -126 -53 -167 -11 -24 -17 -47 -15 -51 7
-11 -32 -130 -62 -190 -27 -53 -29 -62 -13 -53 7 5 7 2 0 -11 -6 -11 -21 -44
-35 -74 -29 -64 -212 -261 -228 -244 -3 2 -17 -7 -32 -21 -16 -14 -33 -24 -40
-22 -6 3 -27 -4 -46 -14 -19 -10 -47 -23 -62 -29 -29 -10 -37 -37 -17 -57 10
-10 15 -136 5 -152 -3 -5 -8 -49 -10 -99 -3 -79 -7 -95 -30 -125 -28 -37 -33
-52 -13 -41 6 4 -4 -8 -23 -25 -32 -29 -33 -31 -10 -24 14 4 41 7 60 8 31 0
35 -3 38 -27 3 -24 -2 -28 -38 -39 -39 -12 -40 -13 -36 -50 l5 -38 -50 -10
c-83 -18 -92 -14 -68 32 12 22 12 22 -9 3 -15 -12 -20 -26 -16 -40 3 -14 -2
-28 -15 -40 -23 -21 -29 -9 -8 14 10 12 9 12 -5 1 -18 -13 -24 -42 -12 -54 9
-9 34 4 34 18 0 13 24 25 59 31 8 2 26 6 39 9 16 4 28 1 33 -7 6 -9 11 -6 17
12 l10 25 18 -32 c14 -24 24 -31 37 -27 17 5 17 4 6 -18 -7 -12 -14 -30 -15
-38 -2 -8 -8 -16 -13 -18 -6 -2 -11 -11 -11 -20 0 -30 -17 -45 -56 -51 -30 -5
-39 -12 -44 -31 -5 -22 -12 -25 -46 -24 -21 0 -52 3 -69 7 l-30 7 30 -11 c17
-7 39 -18 50 -25 19 -14 19 -14 -3 -14 -13 0 -37 7 -53 16 -17 8 -33 13 -36
11 -2 -3 5 -8 16 -12 12 -3 21 -10 21 -15 0 -5 12 -13 28 -18 24 -9 25 -10 5
-11 -13 -1 -26 -1 -30 0 -3 0 -10 -6 -15 -15 -12 -21 -38 -20 -38 2 -1 13 -5
11 -23 -11 -16 -19 -26 -24 -33 -17 -18 18 -41 1 -53 -39 -15 -50 -14 -61 4
-61 8 0 15 7 15 15 0 8 4 15 9 15 11 0 21 -38 27 -100 7 -64 10 -70 39 -70 16
0 38 12 57 32 l31 33 -23 -42 c-13 -23 -30 -44 -39 -46 -9 -3 -4 -5 12 -6 15
0 27 -5 27 -9 0 -12 -62 -32 -85 -28 -11 2 -14 1 -7 -1 22 -8 9 -44 -23 -61
-32 -18 -45 -31 -45 -47 0 -5 4 -4 9 4 12 18 36 8 56 -22 22 -35 11 -52 -43
-65 -44 -10 -45 -10 -9 -8 46 3 44 -13 -4 -29 l-34 -12 -5 -84 c-5 -89 -33
-179 -56 -179 -8 0 -14 17 -17 48 l-3 47 -2 -47 c-2 -51 5 -47 -92 -61 -14 -3
9 -5 50 -6 59 -2 70 -4 51 -12 -20 -8 -21 -11 -10 -25 12 -14 9 -14 -26 1 -22
9 -42 17 -45 17 -46 4 -40 -37 10 -62 43 -22 49 -39 28 -87 -7 -15 -13 -30
-15 -32 -1 -2 -33 22 -70 54 l-68 59 58 -61 c33 -33 55 -63 49 -67 -5 -3 -35
17 -66 44 -32 28 -62 48 -67 44 -6 -3 -15 -1 -22 4 -16 12 -106 62 -113 62 -3
0 1 -7 10 -15 8 -8 20 -15 26 -15 6 0 8 -5 5 -10 -6 -9 -2 -12 27 -14 7 -1 23
-11 37 -24 25 -23 47 -30 35 -10 -4 7 -3 8 5 4 6 -4 8 -12 5 -18 -5 -8 -1 -9
12 -4 10 4 15 4 11 0 -4 -4 16 -22 43 -41 56 -37 66 -52 20 -28 -17 9 -35 13
-41 10 -5 -4 -8 -1 -7 6 2 6 -3 14 -11 17 -9 3 -11 0 -6 -8 6 -9 4 -11 -4 -6
-7 5 -10 11 -7 14 3 3 -10 15 -30 27 -32 19 -42 21 -86 12 -38 -8 -56 -7 -72
3 -17 10 -19 10 -8 -1 14 -15 16 -49 4 -49 -5 0 -17 9 -27 20 -10 11 -23 19
-29 16 -6 -2 -29 6 -50 18 -29 15 -40 18 -43 9 -3 -7 -15 -13 -28 -13 -13 0
-30 -3 -39 -6 -29 -11 -17 -20 20 -16 26 3 35 1 30 -7 -4 -6 -14 -11 -22 -11
-8 0 -14 -5 -14 -11 0 -8 -5 -8 -15 1 -13 11 -14 8 -9 -18 4 -18 1 -32 -5 -37
-9 -5 -9 -11 1 -23 11 -13 11 -15 -4 -9 -13 5 -16 1 -12 -20 5 -24 -10 -53
-27 -53 -5 0 -6 8 -2 18 6 15 4 15 -15 -2 -12 -11 -22 -14 -22 -8 0 6 4 14 10
17 5 3 15 15 21 27 9 17 5 16 -24 -8 -26 -20 -33 -32 -26 -40 14 -18 -4 -49
-41 -71 -29 -17 -39 -33 -21 -33 5 0 11 -9 14 -19 4 -17 2 -18 -19 -11 -18 7
-24 6 -25 -5 -1 -8 -2 -19 -3 -23 -1 -10 -35 -91 -47 -114 -8 -16 -3 -18 51
-18 42 0 60 4 60 13 0 7 -11 13 -27 12 -36 0 -41 25 -12 71 28 46 76 68 118
53 37 -13 46 -38 28 -81 -17 -40 -42 -62 -62 -54 -8 3 -15 1 -15 -5 0 -7 58
-9 173 -7 l172 3 57 38 c31 20 61 37 67 37 5 0 13 5 17 12 10 17 -53 2 -72
-17 -14 -13 -34 -19 -56 -16 -4 0 -24 -7 -44 -15 -26 -11 -39 -13 -42 -5 -2 7
-8 6 -17 -2 -7 -8 -26 -12 -42 -10 -23 4 -35 16 -63 70 -35 64 -64 102 -58 72
2 -8 8 -17 13 -21 6 -5 3 -8 -7 -8 -25 0 -31 16 -18 54 10 32 12 33 51 26 54
-10 82 -37 74 -70 -11 -42 -29 -51 -21 -10 5 33 5 34 -10 15 -16 -19 -16 -19
-9 5 7 23 7 24 -10 10 -17 -14 -18 -13 -12 3 4 11 3 16 -3 12 -6 -3 -10 -1
-10 6 0 7 -3 10 -6 6 -9 -9 77 -148 90 -144 23 7 78 197 57 197 -6 0 -7 -7 -4
-17 5 -11 3 -14 -6 -8 -10 6 -11 2 -6 -15 5 -16 4 -20 -5 -15 -9 5 -10 2 -6
-13 4 -11 2 -23 -4 -27 -6 -4 -10 6 -10 25 0 33 35 110 49 110 19 0 42 -32 32
-44 -5 -6 -19 -44 -31 -85 -12 -40 -24 -80 -27 -87 -11 -30 81 -9 117 25 13
13 13 14 -3 8 -17 -6 -67 10 -67 22 0 3 9 12 20 19 17 10 24 10 44 -3 13 -9
26 -22 29 -28 5 -12 113 -15 124 -3 23 22 17 -25 -12 -97 -7 -16 75 -17 1661
-15 l1669 3 -3 50 c-5 80 -37 166 -117 314 -63 114 -75 145 -75 183 0 35 -11
69 -44 135 -37 74 -46 103 -55 184 -21 189 -149 517 -242 623 -66 74 -211 156
-277 156 -11 0 -54 17 -98 38 -43 22 -117 51 -164 67 -105 34 -102 33 -91 53
6 10 4 24 -6 39 -14 22 -14 23 2 16 15 -5 17 -2 13 15 -4 12 -2 22 3 22 10 0
0 60 -13 76 -10 14 16 39 31 30 17 -11 25 -75 11 -91 -10 -12 -9 -15 4 -15 11
0 16 9 16 30 0 17 5 30 10 30 7 0 7 6 0 20 -12 23 -13 22 23 24 22 2 27 -2 27
-20 0 -12 7 -27 15 -34 12 -10 15 -10 15 2 0 8 -4 18 -9 23 -17 19 -23 55 -9
55 24 0 49 25 43 42 -3 8 -30 32 -60 53 -51 35 -105 93 -105 113 0 4 -13 26
-30 48 -16 21 -30 42 -30 47 0 4 -9 26 -19 50 -11 23 -23 66 -26 95 -4 28 -11
49 -16 46 -13 -7 -11 3 4 27 10 17 9 22 -6 33 -20 15 -13 48 9 39 9 -3 14 1
14 12 0 10 -4 13 -12 9 -9 -5 -8 -2 1 10 8 9 16 29 17 44 2 15 15 83 28 152
14 69 28 174 31 235 4 60 11 127 16 148 14 53 1 234 -17 234 -9 0 -11 -4 -4
-12 12 -15 13 -150 1 -230 -3 -21 -21 22 -21 50 0 17 -2 55 -5 85 -3 30 -6 63
-6 73 0 9 -4 17 -10 17 -5 0 -9 9 -9 20 0 11 -4 20 -10 20 -6 0 -6 -9 0 -26 6
-14 10 -31 10 -37 0 -17 -28 25 -32 48 -1 11 -8 25 -15 30 -17 15 -20 47 -4
53 8 3 11 0 7 -6 -7 -12 13 -52 26 -52 19 0 5 33 -43 104 -29 42 -49 79 -45
83 3 4 13 -2 21 -13 12 -16 14 -17 15 -3 0 19 30 35 30 17 0 -6 3 -9 6 -5 3 3
-3 23 -14 44 -37 73 -44 91 -46 121 -1 17 -9 39 -19 49 -9 11 -17 26 -17 33 0
7 -8 22 -17 33 -15 17 -16 20 -2 15 20 -8 46 7 30 16 -6 4 -11 1 -11 -5 0 -7
-20 7 -45 31 -24 24 -42 46 -40 50 3 4 -5 16 -16 26 -11 10 -18 23 -15 30 3 7
-8 24 -24 38 -17 14 -30 28 -30 32 0 4 -11 19 -24 33 -14 15 -26 39 -29 55 -2
17 -12 35 -23 40 -10 6 -21 12 -24 14 -2 2 1 7 9 11 10 6 6 21 -19 67 -21 40
-29 67 -25 84 4 17 3 21 -4 11 -7 -11 -11 -9 -21 9 -8 15 -8 20 -1 16 17 -11
13 10 -5 25 -8 7 -13 20 -11 30 3 13 0 16 -11 12 -11 -5 -14 -2 -9 11 5 11 3
15 -5 10 -7 -5 -9 -2 -5 9 3 8 0 17 -6 20 -7 3 -13 20 -12 38 0 19 -10 53 -22
77 -12 23 -17 40 -12 37 15 -10 10 4 -13 35 -24 33 -17 55 8 24 14 -16 13 -15
0 6 -9 14 -19 33 -23 43 -3 10 -11 16 -18 13 -8 -3 -16 1 -19 9 -3 9 0 12 10
8 15 -6 -3 26 -75 132 -49 71 -109 135 -114 122 -3 -7 -9 -1 -15 13 -5 14 -17
32 -26 39 -9 7 -16 18 -16 23 0 5 -15 25 -34 43 -33 35 -53 46 -40 23 4 -7 -8
1 -27 18 -19 17 -39 30 -45 27 -6 -2 -14 6 -17 17 -4 17 -2 20 16 15 22 -6 22
-6 2 10 -12 9 -21 12 -23 5 -2 -5 -8 -10 -14 -10 -5 0 -6 9 -3 20 5 14 2 20
-10 20 -20 0 -76 41 -69 51 2 4 -3 6 -13 5 -23 -5 -66 11 -59 22 2 4 -3 8 -12
9 -54 6 -66 9 -69 20 -4 12 35 12 55 -1 7 -4 12 -4 12 1 0 9 -94 53 -112 53
-7 0 -20 8 -31 18 -12 10 -17 11 -12 3 6 -11 2 -13 -19 -7 -15 4 -26 2 -26 -4
0 -16 -38 -12 -67 7 -26 17 -27 17 -20 0 3 -9 2 -17 -4 -17 -5 0 -12 7 -15 15
-4 8 -11 15 -16 15 -6 0 -5 -6 2 -15 11 -13 8 -15 -14 -15 -15 0 -25 4 -22 8
2 4 -5 9 -17 9 -17 2 -19 0 -7 -7 9 -6 10 -10 3 -10 -6 0 -19 -3 -27 -6 -12
-5 -15 -2 -10 10 5 13 -1 16 -35 16 -23 0 -53 -7 -67 -16 -13 -9 -27 -14 -30
-11 -3 3 4 8 15 12 12 3 21 10 21 15 0 11 -40 9 -47 -3z m420 -34 c-7 -2 -19
-2 -25 0 -7 3 -2 5 12 5 14 0 19 -2 13 -5z m-186 -18 c2 -6 -20 -8 -59 -6 -50
4 -57 6 -33 11 42 9 88 7 92 -5z m53 -11 c0 -2 -7 -4 -15 -4 -8 0 -15 4 -15
10 0 5 7 7 15 4 8 -4 15 -8 15 -10z m71 -16 c22 -6 39 -15 39 -19 0 -5 -12 -4
-27 2 -14 5 -31 8 -37 6 -6 -3 -17 2 -24 9 -16 18 -3 18 49 2z m-184 -4 c-3
-3 -12 -4 -19 -1 -8 3 -5 6 6 6 11 1 17 -2 13 -5z m40 0 c-3 -3 -12 -4 -19 -1
-8 3 -5 6 6 6 11 1 17 -2 13 -5z m50 0 c-3 -3 -12 -4 -19 -1 -8 3 -5 6 6 6 11
1 17 -2 13 -5z m348 -79 c17 -7 37 -16 45 -18 11 -4 10 -6 -3 -6 -17 -1 -33 5
-107 37 -24 11 -24 11 5 5 17 -3 44 -11 60 -18z m-955 -5 c-8 -5 -19 -10 -25
-10 -5 0 -3 5 5 10 8 5 20 10 25 10 6 0 3 -5 -5 -10z m545 -40 c-3 -5 -12 -7
-20 -3 -21 7 -19 13 6 13 11 0 18 -4 14 -10z m-820 -28 c-6 -5 -31 -26 -56
-48 l-46 -39 49 48 c27 26 52 47 56 47 3 0 2 -4 -3 -8z m-120 -12 c-3 -5 -12
-10 -18 -10 -7 0 -6 4 3 10 19 12 23 12 15 0z m1416 -7 c13 -16 12 -17 -3 -4
-10 7 -18 15 -18 17 0 8 8 3 21 -13z m-386 -13 c13 -5 14 -9 5 -9 -8 0 -24 4
-35 9 -13 5 -14 9 -5 9 8 0 24 -4 35 -9z m115 -22 c0 -6 -6 -5 -15 2 -8 7 -15
14 -15 16 0 2 7 1 15 -2 8 -4 15 -11 15 -16z m-150 -14 c0 -2 -11 -4 -25 -4
-14 0 -25 4 -25 9 0 4 11 6 25 3 14 -2 25 -6 25 -8z m57 -1 c-4 -3 1 -12 11
-19 14 -10 10 -10 -21 -1 -34 11 -35 13 -15 19 32 9 32 9 25 1z m504 -10 c13
-16 12 -17 -3 -4 -17 13 -22 21 -14 21 2 0 10 -8 17 -17z m-66 -13 c3 -6 -1
-7 -9 -4 -18 7 -21 14 -7 14 6 0 13 -4 16 -10z m-1236 -13 c-2 -1 -13 -9 -24
-17 -19 -14 -19 -14 -6 3 7 9 18 17 24 17 6 0 8 -1 6 -3z m131 -10 c-14 -7
-27 -9 -28 -5 -2 4 -8 6 -13 2 -5 -3 -9 -1 -9 4 0 5 17 9 38 10 36 1 36 1 12
-11z m-90 -12 c0 -2 -10 -9 -22 -15 -22 -11 -22 -10 -4 4 21 17 26 19 26 11z
m321 -42 c13 -17 13 -17 -6 -3 -11 8 -22 16 -24 17 -2 2 0 3 6 3 6 0 17 -8 24
-17z m-261 2 c0 -2 -13 -11 -30 -20 -38 -19 -40 -11 -2 9 31 17 32 18 32 11z
m40 -29 c0 -2 -7 -7 -16 -10 -8 -3 -12 -2 -9 4 6 10 25 14 25 6z m-40 -20 c0
-3 -15 -14 -32 -26 l-33 -22 28 26 c27 25 37 31 37 22z m188 -1 c-2 -3 -18 -7
-34 -9 -68 -8 -111 -27 -145 -63 -48 -52 -119 -147 -119 -161 0 -6 -4 -14 -10
-17 -22 -13 6 34 71 122 65 87 97 113 154 126 29 7 89 8 83 2z m-268 -79 c0
-2 -8 -10 -17 -17 -16 -13 -17 -12 -4 4 13 16 21 21 21 13z m926 -46 c11 -8
24 -22 29 -30 5 -8 -5 -4 -22 10 -16 14 -39 30 -49 37 -18 12 -18 12 1 5 11
-4 30 -14 41 -22z m-331 0 c3 -5 1 -10 -4 -10 -6 0 -11 5 -11 10 0 6 2 10 4
10 3 0 8 -4 11 -10z m-962 -45 c-3 -9 -8 -14 -10 -11 -3 3 -2 9 2 15 9 16 15
13 8 -4z m227 -39 c0 -2 -8 -10 -17 -17 -16 -13 -17 -12 -4 4 13 16 21 21 21
13z m1750 -98 c0 -4 -9 1 -20 12 -11 11 -20 23 -20 27 0 3 9 -2 20 -12 11 -10
20 -22 20 -27z m-2054 -55 c-8 -15 -15 -25 -16 -21 0 12 23 58 27 54 3 -2 -2
-17 -11 -33z m94 -196 c0 -2 -10 -12 -22 -23 l-23 -19 19 23 c18 21 26 27 26
19z m1424 -33 c3 -8 2 -12 -4 -9 -6 3 -10 10 -10 16 0 14 7 11 14 -7z m-1957
-146 c-3 -7 -5 -2 -5 12 0 14 2 19 5 13 2 -7 2 -19 0 -25z m2318 -38 c-3 -5
-14 -10 -23 -9 -14 0 -13 2 3 9 27 11 27 11 20 0z m-1730 -160 c-3 -5 -12 -10
-18 -10 -7 0 -6 4 3 10 19 12 23 12 15 0z m1949 -99 c4 -5 -3 -7 -14 -4 -23 6
-26 13 -6 13 8 0 17 -4 20 -9z m336 -83 c0 -15 -17 -8 -41 18 l-24 26 32 -19
c18 -10 33 -21 33 -25z m-2330 27 c0 -2 -10 -9 -22 -15 -22 -11 -22 -10 -4 4
21 17 26 19 26 11z m-740 -26 c-7 -11 -14 -18 -17 -15 -3 3 0 12 7 21 18 21
23 19 10 -6z m690 -13 c0 -2 -7 -7 -16 -10 -8 -3 -12 -2 -9 4 6 10 25 14 25 6z
m1405 -76 c-3 -5 -10 -10 -16 -10 -5 0 -9 5 -9 10 0 6 7 10 16 10 8 0 12 -4 9
-10z m-1655 -24 c0 -2 -9 -6 -20 -9 -11 -3 -18 -1 -14 4 5 9 34 13 34 5z m262
-81 c-4 -26 -22 -45 -22 -25 0 12 18 50 24 50 2 0 1 -11 -2 -25z m2508 -56 c0
-6 -4 -7 -10 -4 -5 3 -10 11 -10 16 0 6 5 7 10 4 6 -3 10 -11 10 -16z m-3270
-54 c-13 -14 -26 -22 -29 -19 -3 3 5 14 18 25 33 27 39 24 11 -6z m70 2 c0 -2
-12 -14 -27 -28 l-28 -24 24 28 c23 25 31 32 31 24z m3210 -54 c0 -7 -4 -13
-10 -13 -5 0 -10 12 -10 28 0 21 2 24 10 12 5 -8 10 -21 10 -27z m-259 -380
c13 -16 12 -17 -3 -4 -17 13 -22 21 -14 21 2 0 10 -8 17 -17z m-196 -103 c10
-11 16 -20 13 -20 -3 0 -13 9 -23 20 -10 11 -16 20 -13 20 3 0 13 -9 23 -20z
m443 -44 c3 -26 4 -27 17 -9 17 21 19 10 6 -34 -5 -17 -5 -35 0 -40 8 -8 17
-42 18 -72 1 -11 4 -11 15 -1 12 9 16 5 22 -24 3 -20 3 -44 -1 -53 -4 -10 -9
-43 -10 -73 -3 -52 -45 -194 -64 -213 -14 -14 -34 88 -26 140 3 27 8 63 10 80
2 18 15 49 29 70 28 41 32 53 15 53 -5 0 -8 -4 -4 -9 3 -5 0 -13 -6 -17 -9 -5
-10 1 -5 20 3 14 2 35 -4 45 -8 16 -16 59 -19 114 -1 5 -4 6 -8 4 -5 -3 -8 8
-8 24 0 36 19 32 23 -5z m145 9 c4 -8 2 -17 -3 -20 -6 -4 -10 -4 -10 -1 0 2
-3 11 -6 20 -3 9 -2 16 4 16 5 0 12 -7 15 -15z m-43 -37 c0 -20 -18 -5 -23 19
-5 26 -4 26 9 8 8 -10 14 -22 14 -27z m-390 -64 l35 -38 -40 31 c-22 17 -51
44 -65 59 l-25 28 30 -21 c17 -12 46 -38 65 -59z m413 33 c3 -8 1 -20 -4 -28
-6 -10 -9 -7 -9 14 0 29 5 35 13 14z m-32 -54 c-9 -16 -10 -14 -11 12 0 21 3
26 11 18 8 -8 8 -16 0 -30z m-3519 5 c-7 -7 -12 -8 -12 -2 0 14 12 26 19 19 2
-3 -1 -11 -7 -17z m3542 -55 c-10 -55 -18 -63 -25 -23 -6 40 0 58 12 39 7 -11
9 -10 9 4 0 9 2 17 5 17 3 0 3 -17 -1 -37z m-3568 -31 c-10 -10 -16 -12 -16
-5 0 7 5 15 10 18 6 3 11 16 11 28 2 21 2 21 6 -2 3 -13 -2 -30 -11 -39z
m3551 -64 c-3 -7 -5 -2 -5 12 0 14 2 19 5 13 2 -7 2 -19 0 -25z m-3 -55 c-4
-16 -11 -32 -16 -38 -9 -9 -1 39 9 58 9 16 13 5 7 -20z m-333 -70 c13 -16 12
-17 -3 -4 -17 13 -22 21 -14 21 2 0 10 -8 17 -17z m285 -96 c-14 -29 -26 -61
-26 -70 0 -10 -4 -17 -10 -17 -5 0 -10 4 -10 9 0 15 62 142 67 137 2 -2 -7
-29 -21 -59z m-3531 3 c-3 -5 -11 -10 -16 -10 -6 0 -7 5 -4 10 3 6 11 10 16
10 6 0 7 -4 4 -10z m3215 -75 c13 -14 21 -25 18 -25 -2 0 -15 11 -28 25 -13
14 -21 25 -18 25 2 0 15 -11 28 -25z m260 -34 c0 -5 3 -18 6 -28 5 -16 4 -16
-10 1 -18 23 -20 36 -6 36 6 0 10 -4 10 -9z m80 -31 c0 -5 -5 -10 -11 -10 -5
0 -7 5 -4 10 3 6 8 10 11 10 2 0 4 -4 4 -10z m-380 -63 c13 -18 17 -26 9 -19
-26 24 -32 12 -8 -15 49 -55 52 -67 5 -20 -42 42 -46 50 -34 64 7 9 8 14 2 10
-7 -4 -17 0 -23 7 -10 12 -9 13 7 9 11 -2 30 -19 42 -36z m61 -44 c13 -17 13
-17 -6 -3 -11 8 -22 16 -24 17 -2 2 0 3 6 3 6 0 17 -8 24 -17z m29 -48 c13
-14 21 -27 18 -30 -2 -3 -17 9 -33 25 -16 17 -24 30 -19 30 6 0 21 -11 34 -25z
m390 -210 c13 -14 19 -25 14 -25 -8 1 -50 50 -41 50 2 0 14 -11 27 -25z m130
-110 c0 10 29 -26 30 -37 0 -4 -11 -7 -24 -6 -13 1 -23 8 -22 16 1 8 -5 17
-13 20 -8 3 -11 0 -7 -7 14 -21 -17 -11 -40 15 -25 26 -31 44 -14 44 6 0 10
-7 10 -15 0 -8 2 -15 4 -15 2 0 11 -3 20 -6 10 -4 16 -1 16 7 0 7 -3 10 -6 6
-3 -3 -17 7 -30 22 -42 50 -26 47 26 -4 28 -27 50 -45 50 -40z m-170 44 c0
-18 -18 -9 -23 12 -4 16 -3 18 9 8 8 -6 14 -15 14 -20z m50 -78 c0 -11 5 -23
11 -27 8 -4 7 -9 -2 -15 -24 -15 -30 -10 -27 26 2 36 18 50 18 16z m-2692 -22
c-9 -27 -12 -29 -20 -15 -12 22 -3 46 16 46 12 0 13 -5 4 -31z m-38 -50 c0
-10 -6 -19 -14 -19 -9 0 -12 8 -8 25 5 28 22 24 22 -6z m2707 -41 c-3 -7 -5
-2 -5 12 0 14 2 19 5 13 2 -7 2 -19 0 -25z m-1437 -22 c0 -2 -7 -6 -15 -10 -8
-3 -15 -1 -15 4 0 6 7 10 15 10 8 0 15 -2 15 -4z m1450 -6 c0 -5 -5 -10 -11
-10 -5 0 -7 5 -4 10 3 6 8 10 11 10 2 0 4 -4 4 -10z m-1460 -50 c0 -11 -2 -20
-4 -20 -2 0 -6 9 -9 20 -3 11 -1 20 4 20 5 0 9 -9 9 -20z m1452 -62 c-7 -7
-12 -8 -12 -2 0 14 12 26 19 19 2 -3 -1 -11 -7 -17z m-2939 -179 c-13 -19 -23
-27 -27 -20 -4 6 -3 11 2 11 5 0 14 12 21 26 6 15 14 24 18 21 3 -4 -3 -20
-14 -38z m2178 -20 c-5 -13 -10 -19 -10 -12 -1 15 10 45 15 40 3 -2 0 -15 -5
-28z m-756 11 c-3 -5 -10 -10 -16 -10 -5 0 -9 5 -9 10 0 6 7 10 16 10 8 0 12
-4 9 -10z m22 -12 c-3 -8 -6 -5 -6 6 -1 11 2 17 5 13 3 -3 4 -12 1 -19z m-78
-98 c-6 -25 -16 -52 -24 -60 -7 -8 -22 -41 -33 -73 -16 -49 -20 -54 -24 -33
-3 14 -1 29 3 33 5 5 14 35 20 68 7 41 18 64 34 77 16 12 22 25 18 40 -3 18
-2 20 6 7 6 -10 6 -30 0 -59z m731 -21 c-7 -11 -14 -18 -17 -15 -3 3 0 12 7
21 18 21 23 19 10 -6z m60 -40 c-7 -11 -14 -18 -17 -15 -3 3 0 12 7 21 18 21
23 19 10 -6z m-900 -69 c0 -4 3 -15 6 -24 4 -10 1 -16 -9 -16 -8 0 -17 -9 -20
-20 -5 -20 -41 -28 -51 -11 -3 5 3 30 15 55 18 41 22 45 40 36 10 -6 19 -15
19 -20z m1081 3 c13 -16 12 -17 -3 -4 -17 13 -22 21 -14 21 2 0 10 -8 17 -17z
m55 -45 l29 -33 -32 29 c-31 28 -38 36 -30 36 2 0 16 -15 33 -32z m-58 -52
c66 -60 114 -115 144 -162 29 -48 30 -48 4 -25 -14 14 -26 30 -26 36 0 13 -75
95 -87 95 -7 0 -42 32 -98 91 l-20 21 25 -12 c14 -8 40 -27 58 -44z m-3387 21
c-10 -9 -11 -8 -5 6 3 10 9 15 12 12 3 -3 0 -11 -7 -18z m-35 -74 c-8 -16 -22
-37 -31 -48 -15 -19 -16 -19 -4 5 16 32 40 70 45 70 3 0 -2 -12 -10 -27z
m1067 -63 c3 -10 -1 -25 -9 -31 -12 -10 -14 -7 -10 12 3 13 5 27 5 32 2 13 9
7 14 -13z m1277 17 c0 -12 -33 -67 -40 -67 -20 0 -20 36 0 52 20 16 40 23 40
15z m1161 -24 c13 -16 12 -17 -3 -4 -10 7 -18 15 -18 17 0 8 8 3 21 -13z
m-1213 -45 c9 -9 8 -16 -6 -32 -9 -11 -11 -16 -4 -12 6 4 12 2 12 -3 0 -16
-12 -13 -40 9 -25 19 -25 19 -5 34 24 19 28 19 43 4z m-1060 -53 c15 -32 15
-55 1 -55 -5 0 -7 5 -4 10 7 12 -31 15 -110 9 -5 0 -31 0 -57 2 -63 3 -69 24
-12 38 49 13 64 9 65 -17 0 -11 2 -12 6 -4 2 6 9 9 15 6 6 -4 8 1 3 15 -6 19
-3 21 38 21 37 0 46 -4 55 -25z m979 -135 c-20 -16 -27 -32 -30 -68 -3 -43 -4
-41 -5 15 -2 65 -3 63 52 72 5 0 -3 -8 -17 -19z m-1287 -181 c0 -11 -4 -18
-10 -14 -5 3 -7 12 -3 20 7 21 13 19 13 -6z m2199 -45 c5 -7 7 -15 4 -18 -4
-3 6 -30 22 -58 l27 -53 -27 28 c-14 15 -29 39 -31 54 -3 14 -11 42 -19 62
-13 32 -13 34 0 16 8 -11 19 -25 24 -31z m385 -60 c5 -14 4 -15 -9 -4 -17 14
-19 20 -6 20 5 0 12 -7 15 -16z m-1474 -29 c0 -12 -19 -12 -23 0 -4 9 -1 12 9
8 7 -3 14 -7 14 -8z m1550 -31 c0 -3 -13 4 -30 16 -16 12 -30 24 -30 26 0 3
14 -4 30 -16 17 -12 30 -24 30 -26z m1 29 c13 -16 12 -17 -3 -4 -17 13 -22 21
-14 21 2 0 10 -8 17 -17z m39 -54 c15 -28 5 -23 -15 7 -9 15 -12 23 -6 20 6
-4 16 -16 21 -27z m-39 -26 c13 -16 12 -17 -3 -4 -17 13 -22 21 -14 21 2 0 10
-8 17 -17z m-387 -29 c3 -8 2 -12 -4 -9 -6 3 -10 10 -10 16 0 14 7 11 14 -7z
m161 -123 c-7 -6 -34 19 -47 43 -8 15 -3 13 20 -9 17 -16 29 -31 27 -34z
m-2583 29 c7 -11 18 -20 25 -20 7 0 13 -7 13 -15 0 -17 -25 -20 -35 -5 -3 6
-19 10 -36 10 -32 0 -34 3 -19 31 14 25 36 24 52 -1z m-961 -37 c-10 -17 -10
-16 -11 3 0 23 13 41 18 25 2 -6 -1 -18 -7 -28z m3337 -18 c-3 -3 -9 2 -12 12
-6 14 -5 15 5 6 7 -7 10 -15 7 -18z m-2428 -2 c0 -5 -7 -17 -15 -27 -14 -19
-15 -19 -15 7 0 17 5 27 15 27 8 0 15 -3 15 -7z m1210 -28 c27 -33 -13 -115
-57 -115 -7 0 -31 -20 -54 -45 -23 -25 -44 -43 -47 -40 -3 3 9 19 26 36 38 37
41 52 8 43 -29 -7 -38 13 -26 56 11 38 27 59 55 70 33 14 82 11 95 -5z m1690
-30 c0 -5 -5 -3 -10 5 -5 8 -10 20 -10 25 0 6 5 3 10 -5 5 -8 10 -19 10 -25z
m-1916 -7 c25 -35 20 -74 -15 -110 -22 -24 -27 -27 -19 -10 6 12 16 22 21 22
6 0 9 6 6 14 -3 7 0 19 6 25 9 9 7 10 -8 5 -17 -7 -18 -6 -7 8 11 14 10 20 -6
36 -19 19 -19 32 -1 32 4 0 15 -10 23 -22z m-299 -28 c-10 -11 -22 -20 -27
-20 -5 0 -4 9 2 20 6 11 18 20 27 20 14 0 14 -2 -2 -20z m-483 -30 c3 -20 0
-30 -8 -30 -18 0 -24 13 -17 38 8 31 20 27 25 -8z m2306 -45 c-3 -3 -9 2 -12
12 -6 14 -5 15 5 6 7 -7 10 -15 7 -18z m-2278 -44 c-6 -12 -15 -21 -20 -21
-16 0 -12 28 8 58 16 25 17 26 20 5 2 -12 -2 -31 -8 -42z m400 50 c0 -6 -4
-13 -10 -16 -5 -3 -10 1 -10 9 0 9 5 16 10 16 6 0 10 -4 10 -9z m140 -71 c0
-5 -4 -10 -10 -10 -5 0 -10 5 -10 10 0 6 5 10 10 10 6 0 10 -4 10 -10z m20
-30 c0 -5 -6 -10 -14 -10 -8 0 -18 5 -21 10 -3 6 3 10 14 10 12 0 21 -4 21
-10z"/>
<path d="M3585 5390 c10 -11 20 -18 23 -15 7 6 -18 35 -31 35 -5 0 -2 -9 8
-20z"/>
<path d="M3960 4920 c0 -5 5 -10 11 -10 5 0 7 5 4 10 -3 6 -8 10 -11 10 -2 0
-4 -4 -4 -10z"/>
<path d="M3220 4891 c0 -5 5 -13 10 -16 6 -3 10 -2 10 4 0 5 -4 13 -10 16 -5
3 -10 2 -10 -4z"/>
<path d="M4030 4856 c0 -2 8 -10 18 -17 15 -13 16 -12 3 4 -13 16 -21 21 -21
13z"/>
<path d="M4140 4715 c19 -19 36 -35 37 -35 2 0 -8 16 -23 35 -14 19 -31 35
-37 35 -6 0 4 -16 23 -35z"/>
<path d="M4190 4654 c0 -4 7 -15 15 -24 8 -9 28 -43 45 -75 16 -33 30 -54 30
-47 0 19 -39 92 -66 125 -13 16 -24 25 -24 21z"/>
<path d="M2476 4246 c4 -12 -2 -14 -33 -10 -27 3 -34 1 -23 -6 8 -5 23 -10 33
-10 9 0 17 -4 17 -10 0 -5 12 -9 28 -9 15 0 38 -2 52 -4 14 -3 42 -8 63 -12
33 -6 37 -5 37 13 0 11 -7 23 -16 26 -9 3 -12 2 -9 -4 4 -6 -19 1 -51 15 -64
28 -106 33 -98 11z m59 -16 c3 -6 -1 -7 -9 -4 -18 7 -21 14 -7 14 6 0 13 -4
16 -10z"/>
<path d="M1227 4203 c-4 -3 -7 -13 -7 -22 1 -13 3 -13 11 2 11 19 8 33 -4 20z"/>
<path d="M2395 4083 c-35 -8 -164 -73 -171 -86 -5 -9 -4 -9 7 1 7 6 22 12 34
12 18 -1 18 -3 -7 -25 l-27 -24 32 -6 c18 -4 40 -9 49 -11 10 -3 21 3 28 17 8
15 9 19 1 15 -20 -13 -11 3 16 29 35 32 52 32 45 0 -7 -42 20 -72 75 -80 42
-6 49 -4 65 15 10 12 18 37 18 56 0 42 11 43 64 2 49 -39 57 -49 48 -63 -3 -5
1 -4 10 3 14 11 18 10 27 -5 6 -10 11 -14 11 -9 0 5 -28 36 -62 69 -62 59 -63
66 -1 21 36 -27 51 -31 33 -8 -41 48 -170 94 -199 71 -11 -9 -15 -9 -18 1 -5
12 -39 14 -78 5z m80 -103 c3 -5 -1 -10 -10 -10 -9 0 -13 5 -10 10 3 6 8 10
10 10 2 0 7 -4 10 -10z"/>
<path d="M4370 4031 c0 -5 7 -12 16 -15 14 -5 15 -4 4 9 -14 17 -20 19 -20 6z"/>
<path d="M3188 3999 c-20 -18 -25 -26 -13 -21 21 11 63 52 52 52 -4 0 -21 -14
-39 -31z"/>
<path d="M4435 3940 c3 -5 8 -10 11 -10 2 0 4 5 4 10 0 6 -5 10 -11 10 -5 0
-7 -4 -4 -10z"/>
<path d="M2346 3931 c-4 -5 1 -8 9 -7 21 3 31 16 12 16 -9 0 -18 -4 -21 -9z"/>
<path d="M4468 3898 c33 -36 77 -127 98 -203 10 -39 20 -62 22 -52 10 49 -97
277 -130 277 -7 0 -2 -10 10 -22z"/>
<path d="M4462 3833 c21 -47 48 -89 48 -74 0 21 -40 101 -51 101 -5 0 -3 -12
3 -27z"/>
<path d="M1080 3710 c-9 -6 -10 -10 -3 -10 6 0 15 5 18 10 8 12 4 12 -15 0z"/>
<path d="M4593 3585 c0 -22 2 -30 4 -17 2 12 2 30 0 40 -3 9 -5 -1 -4 -23z"/>
<path d="M4590 3511 c0 -17 5 -31 10 -31 6 0 10 11 10 24 0 14 -4 28 -10 31
-6 4 -10 -7 -10 -24z"/>
<path d="M3067 3423 c-14 -17 -12 -18 41 -20 48 -1 53 0 32 9 -24 10 -24 10
-5 18 16 7 13 9 -16 9 -22 1 -42 -6 -52 -16z"/>
<path d="M2836 3421 c-10 -15 28 -18 64 -5 l35 12 -47 1 c-26 1 -49 -3 -52 -8z"/>
<path d="M1027 3373 c-8 -14 -19 -68 -13 -62 8 8 26 69 21 69 -2 0 -6 -3 -8
-7z"/>
<path d="M1001 3269 c-13 -39 -14 -42 -2 -35 13 8 32 66 21 66 -4 0 -13 -14
-19 -31z"/>
<path d="M2480 3157 c0 -3 21 -15 46 -27 32 -14 75 -21 138 -24 50 -2 99 -7
109 -11 9 -4 17 -3 17 3 0 6 -26 13 -57 16 -58 6 -189 29 -230 42 -13 3 -23 4
-23 1z"/>
<path d="M3338 3154 c-3 -3 -34 -6 -69 -6 -45 -1 -68 -6 -77 -17 -11 -14 -11
-14 -6 1 8 23 -33 12 -46 -13 -11 -19 -38 -16 -52 5 -5 7 -8 4 -8 -6 0 -9 -10
-19 -22 -22 -13 -3 22 -2 77 1 55 3 111 6 125 7 27 1 90 35 90 48 0 9 -4 10
-12 2z"/>
<path d="M2967 3104 c-14 -14 -7 -23 18 -21 14 1 26 7 28 12 2 12 -36 19 -46
9z"/>
<path d="M3223 3047 c-32 -27 -90 -57 -109 -57 -7 0 -16 -5 -20 -12 -5 -7 -2
-9 9 -5 9 3 17 2 19 -4 5 -14 126 61 131 82 6 24 4 24 -30 -4z"/>
<path d="M770 2875 c-7 -9 -11 -18 -8 -20 3 -3 11 1 18 10 7 9 11 18 8 20 -3
3 -11 -1 -18 -10z"/>
<path d="M710 2809 c-14 -11 -35 -27 -47 -37 -27 -21 -31 -39 -5 -20 37 26 84
69 81 73 -2 2 -15 -5 -29 -16z"/>
<path d="M2991 2481 c-33 -6 -34 -7 -17 -23 10 -10 22 -18 27 -18 6 0 7 -4 4
-10 -9 -14 17 -12 35 3 8 7 24 22 34 35 l19 22 -34 -1 c-19 -1 -49 -4 -68 -8z"/>
<path d="M3125 2480 c3 -5 8 -10 11 -10 2 0 4 5 4 10 0 6 -5 10 -11 10 -5 0
-7 -4 -4 -10z"/>
<path d="M3068 1923 c6 -2 18 -2 25 0 6 3 1 5 -13 5 -14 0 -19 -2 -12 -5z"/>
<path d="M3067 1783 c-12 -11 -8 -23 8 -23 8 0 15 7 15 15 0 16 -12 20 -23 8z"/>
<path d="M3014 1768 c-4 -6 -3 -8 4 -4 5 3 13 0 15 -6 3 -8 6 -6 6 5 1 19 -14
23 -25 5z"/>
<path d="M3020 1720 c0 -22 8 -25 30 -10 13 9 13 11 0 20 -22 15 -30 12 -30
-10z"/>
<path d="M2875 1640 c-3 -5 -12 -7 -19 -4 -8 3 -17 1 -20 -4 -9 -15 4 -42 20
-42 16 0 54 35 54 50 0 13 -27 13 -35 0z"/>
<path d="M2814 1579 c-4 -7 -3 -9 4 -5 5 3 13 0 15 -6 4 -9 6 -10 6 -1 1 17
-16 25 -25 12z"/>
<path d="M2745 1535 c-21 -13 -53 -43 -71 -66 l-31 -42 20 -23 c11 -13 23 -21
26 -18 3 3 0 9 -7 13 -20 12 26 102 59 118 15 7 32 20 39 28 16 19 14 18 -35
-10z"/>
<path d="M1811 1502 c5 -20 9 -52 9 -71 0 -48 6 -36 14 29 6 48 4 57 -12 67
-18 11 -19 9 -11 -25z"/>
<path d="M2785 1520 c-16 -17 -16 -20 -3 -15 9 4 19 13 22 21 7 19 2 18 -19
-6z"/>
<path d="M1897 1477 c3 -20 -3 -56 -16 -91 -26 -75 -21 -83 9 -14 31 72 39 82
58 66 8 -7 4 4 -9 24 -32 50 -49 56 -42 15z"/>
<path d="M2730 1480 c0 -5 5 -10 11 -10 5 0 7 5 4 10 -3 6 -8 10 -11 10 -2 0
-4 -4 -4 -10z"/>
<path d="M1751 1434 c0 -11 3 -14 6 -6 3 7 2 16 -1 19 -3 4 -6 -2 -5 -13z"/>
<path d="M2595 1370 c-10 -11 -16 -21 -14 -23 2 -1 15 -11 29 -22 l25 -20 -20
23 c-16 19 -17 26 -7 43 16 25 10 24 -13 -1z"/>
<path d="M2551 1316 c-9 -10 -8 -15 2 -19 8 -3 13 3 13 14 0 23 0 23 -15 5z"/>
<path d="M2740 1296 c0 -2 8 -10 18 -17 15 -13 16 -12 3 4 -13 16 -21 21 -21
13z"/>
<path d="M2536 1248 c-10 -61 -12 -158 -4 -146 4 7 8 26 8 41 l0 28 31 -22
c26 -18 30 -27 27 -55 -2 -19 0 -34 4 -34 4 0 8 22 8 49 0 27 3 63 7 81 4 24
3 31 -5 26 -7 -4 -12 -20 -12 -37 0 -35 -9 -37 -39 -5 -18 19 -21 30 -15 65 4
22 4 41 1 41 -3 0 -8 -15 -11 -32z"/>
<path d="M1630 1260 c0 -5 4 -10 10 -10 5 0 18 -17 29 -37 11 -21 20 -34 21
-29 0 13 -43 86 -52 86 -4 0 -8 -4 -8 -10z"/>
<path d="M2463 1210 c-13 -15 -25 -36 -29 -46 -5 -16 -4 -16 7 1 6 11 20 28
30 38 11 10 19 22 19 27 0 14 -2 12 -27 -20z"/>
<path d="M2561 1224 c0 -11 3 -14 6 -6 3 7 2 16 -1 19 -3 4 -6 -2 -5 -13z"/>
<path d="M2581 1204 c0 -11 3 -14 6 -6 3 7 2 16 -1 19 -3 4 -6 -2 -5 -13z"/>
<path d="M2400 1125 c-7 -9 -8 -15 -2 -15 5 0 12 7 16 15 3 8 4 15 2 15 -2 0
-9 -7 -16 -15z"/>
<path d="M2552 1110 c0 -14 2 -19 5 -12 2 6 2 18 0 25 -3 6 -5 1 -5 -13z"/>
<path d="M2571 1094 c0 -11 3 -14 6 -6 3 7 2 16 -1 19 -3 4 -6 -2 -5 -13z"/>
<path d="M2770 1032 c0 -4 16 -6 35 -4 19 2 35 6 35 8 0 2 -16 4 -35 4 -19 0
-35 -4 -35 -8z"/>
<path d="M2365 1010 c3 -5 8 -10 11 -10 2 0 4 5 4 10 0 6 -5 10 -11 10 -5 0
-7 -4 -4 -10z"/>
<path d="M2497 874 c1 -70 4 -128 6 -130 2 -2 33 -6 70 -10 l67 -6 0 110 0
110 -65 26 c-36 14 -69 26 -73 26 -4 0 -6 -57 -5 -126z m69 77 c-4 -5 -1 -11
6 -13 8 -3 6 -7 -5 -11 -17 -6 -24 12 -10 26 9 10 15 8 9 -2z m-36 -41 c0 -5
-2 -10 -4 -10 -3 0 -8 5 -11 10 -3 6 -1 10 4 10 6 0 11 -4 11 -10z m54 -26 c9
-25 7 -41 -4 -24 -8 13 -13 13 -31 2 -11 -8 -19 -10 -17 -5 3 4 8 16 11 26 8
21 33 22 41 1z m-20 -49 c3 -8 1 -15 -4 -15 -6 0 -10 7 -10 15 0 8 2 15 4 15
2 0 6 -7 10 -15z m-17 -57 c-3 -8 -6 -5 -6 6 -1 11 2 17 5 13 3 -3 4 -12 1
-19z"/>
<path d="M2396 903 c-6 -14 -5 -15 5 -6 7 7 10 15 7 18 -3 3 -9 -2 -12 -12z"/>
<path d="M2393 861 c-27 -32 -29 -38 -13 -34 11 3 20 12 20 19 0 8 5 14 11 14
5 0 7 -6 3 -12 -4 -7 -3 -10 1 -6 7 7 18 58 12 58 -1 0 -16 -18 -34 -39z"/>
<path d="M2359 853 l-24 -28 28 24 c25 23 32 31 24 31 -2 0 -14 -12 -28 -27z"/>
<path d="M1635 820 c10 -11 20 -20 23 -20 3 0 -3 9 -13 20 -10 11 -20 20 -23
20 -3 0 3 -9 13 -20z"/>
<path d="M2180 820 c0 -11 48 -25 57 -16 4 3 -3 6 -15 6 -12 0 -22 5 -22 10 0
6 -4 10 -10 10 -5 0 -10 -4 -10 -10z"/>
<path d="M1635 780 c10 -11 20 -20 23 -20 3 0 -3 9 -13 20 -10 11 -20 20 -23
20 -3 0 3 -9 13 -20z"/>
<path d="M1690 775 c13 -14 26 -25 28 -25 3 0 -5 11 -18 25 -13 14 -26 25 -28
25 -3 0 5 -11 18 -25z"/>
<path d="M1816 770 c-10 -17 -16 -34 -13 -37 8 -7 40 44 35 57 -2 6 -12 -3
-22 -20z"/>
<path d="M2152 775 c-14 -30 -16 -55 -4 -55 4 0 19 11 34 25 15 14 38 30 50
35 21 8 21 8 -7 8 -16 -1 -37 2 -46 6 -11 5 -19 -1 -27 -19z m40 -7 c-9 -9
-15 -9 -24 0 -9 9 -7 12 12 12 19 0 21 -3 12 -12z"/>
<path d="M2308 758 c-34 -12 -37 -26 -5 -25 12 1 34 -2 50 -6 24 -7 27 -5 27
18 0 28 -22 32 -72 13z m62 -12 c0 -9 -8 -12 -26 -8 -19 3 -22 7 -12 13 20 13
38 11 38 -5z"/>
<path d="M2145 670 c-3 -5 -2 -18 4 -28 7 -13 20 -18 48 -16 54 3 88 15 72 25
-10 6 -7 11 11 18 20 8 9 10 -52 10 -42 1 -80 -3 -83 -9z m76 -10 c11 0 17 -4
14 -10 -8 -12 -62 -13 -69 -1 -8 12 6 22 22 16 7 -3 23 -5 33 -5z"/>
<path d="M2370 647 c3 -2 28 -22 55 -42 39 -30 45 -32 25 -10 -14 15 -38 34
-55 42 -16 9 -28 13 -25 10z"/>
<path d="M2347 609 c7 -7 15 -10 18 -7 3 3 -2 9 -12 12 -14 6 -15 5 -6 -5z"/>
<path d="M2380 595 c0 -2 14 -14 31 -26 30 -21 30 -21 18 -1 -11 17 -49 38
-49 27z"/>
<path d="M1752 543 c-30 -44 -34 -53 -23 -53 5 0 18 14 28 30 11 19 23 28 32
25 11 -4 12 -3 1 10 -16 19 -15 20 -38 -12z"/>
<path d="M2031 544 c-6 -15 -9 -29 -6 -32 3 -4 8 4 12 16 6 25 21 29 29 7 4
-8 10 -15 14 -15 5 0 3 11 -3 25 -15 32 -31 32 -46 -1z"/>
<path d="M2159 547 c6 -8 9 -16 7 -18 -3 -2 10 -13 27 -23 l32 -18 -21 24
c-12 12 -19 29 -17 36 3 7 -4 12 -17 12 -18 0 -20 -3 -11 -13z"/>
<path d="M1355 540 c-3 -5 -2 -10 4 -10 5 0 13 5 16 10 3 6 2 10 -4 10 -5 0
-13 -4 -16 -10z"/>
<path d="M2230 536 c0 -2 8 -10 18 -17 15 -13 16 -12 3 4 -13 16 -21 21 -21
13z"/>
<path d="M1392 514 c10 -10 20 -16 22 -13 3 3 -5 11 -17 18 -21 13 -21 12 -5
-5z"/>
<path d="M1781 503 c-13 -28 -13 -28 8 -9 22 20 27 36 13 36 -5 0 -14 -12 -21
-27z"/>
<path d="M2005 480 c-8 -13 5 -13 25 0 13 8 13 10 -2 10 -9 0 -20 -4 -23 -10z"/>
<path d="M1772 434 c-27 -53 -24 -67 7 -28 17 21 30 75 19 74 -2 0 -13 -21
-26 -46z"/>
<path d="M1775 361 c-3 -5 -1 -12 5 -16 5 -3 10 1 10 9 0 18 -6 21 -15 7z"/>
<path d="M1548 313 c7 -3 16 -2 19 1 4 3 -2 6 -13 5 -11 0 -14 -3 -6 -6z"/>
<path d="M1755 310 c-4 -6 -3 -10 2 -10 4 0 7 -24 6 -52 -1 -29 1 -42 3 -28 3
14 9 39 14 57 6 23 5 33 -6 37 -7 3 -16 1 -19 -4z"/>
<path d="M1415 230 c-3 -5 1 -10 9 -10 9 0 16 5 16 10 0 6 -4 10 -9 10 -6 0
-13 -4 -16 -10z"/>
<path d="M1364 209 c-3 -6 -1 -16 5 -22 8 -8 11 -6 11 7 0 10 4 14 12 10 7 -4
8 -3 4 4 -9 15 -23 15 -32 1z"/>
<path d="M1743 159 c-12 -30 -11 -32 3 -17 9 8 14 23 12 33 -2 12 -7 7 -15
-16z"/>
<path d="M1347 143 c-4 -3 -7 -11 -7 -17 0 -6 5 -5 12 2 6 6 9 14 7 17 -3 3
-9 2 -12 -2z"/>
<path d="M1665 105 c0 -28 15 -35 16 -7 0 10 3 12 6 4 2 -6 9 -9 14 -6 6 3 2
12 -8 20 -25 19 -28 18 -28 -11z"/>
<path d="M1430 59 c0 -24 23 -21 28 4 2 10 -3 17 -12 17 -10 0 -16 -9 -16 -21z"/>
<path d="M1350 36 c0 -32 3 -36 24 -36 35 0 36 11 4 44 l-28 29 0 -37z"/>
<path d="M1720 54 c0 -8 -4 -13 -9 -10 -5 3 -14 0 -20 -8 -9 -11 -6 -16 19
-24 18 -7 30 -7 30 -1 0 5 -6 9 -14 9 -8 0 -17 4 -20 9 -3 5 2 8 11 7 10 0 19
7 21 17 2 9 -1 17 -7 17 -6 0 -11 -7 -11 -16z"/>
</g>
</svg>
